<svg width="22" height="22" viewBox="0 0 22 22" fill="none" xmlns="http://www.w3.org/2000/svg">
<path fill-rule="evenodd" clip-rule="evenodd" d="M16.4414 16.8679L21.0037 11.5445C21.2216 11.296 21.3331 10.9822 21.3333 10.6668C21.3334 10.451 21.2814 10.2344 21.1757 10.0374C21.1287 9.94959 21.0714 9.86618 21.0037 9.78906L16.4414 4.46569C15.9622 3.90656 15.1204 3.84177 14.5613 4.32097C14.0022 4.80017 13.9374 5.6419 14.4166 6.20102L17.1011 9.33335L6.77495 9.33335C6.03857 9.33335 5.44162 9.9303 5.44162 10.6667C5.44162 11.4031 6.03857 12 6.77495 12L17.1013 12L14.4166 15.1325C13.9374 15.6916 14.0022 16.5334 14.5613 17.0126C15.1204 17.4918 15.9622 17.427 16.4414 16.8679ZM7.99992 2.66667C8.7363 2.66667 9.33325 3.26362 9.33325 4L9.33325 6C9.33325 6.73638 9.9302 7.33333 10.6666 7.33333C11.403 7.33333 11.9999 6.73638 11.9999 6L11.9999 4C11.9999 1.79086 10.2091 -4.86254e-07 7.99992 -5.82819e-07L3.99992 -7.57664e-07C1.79078 -8.54229e-07 -8.20943e-05 1.79086 -8.21908e-05 4L-8.27737e-05 17.3333C-8.28702e-05 19.5425 1.79078 21.3333 3.99992 21.3333L7.99992 21.3333C10.2091 21.3333 11.9999 19.5425 11.9999 17.3333L11.9999 15.3333C11.9999 14.597 11.403 14 10.6666 14C9.9302 14 9.33325 14.597 9.33325 15.3333L9.33325 17.3333C9.33325 18.0697 8.7363 18.6667 7.99992 18.6667L3.99992 18.6667C3.26354 18.6667 2.66658 18.0697 2.66658 17.3333L2.66658 4C2.66658 3.26362 3.26354 2.66667 3.99992 2.66667L7.99992 2.66667Z" fill="white"/>
</svg>
