<svg width="17" height="18" viewBox="0 0 17 18" fill="none" xmlns="http://www.w3.org/2000/svg">
<path d="M8.50326 6.54929C7.90347 6.54929 7.34179 6.78266 6.91652 7.20915C6.49325 7.63564 6.25855 8.19894 6.25855 8.80045C6.25855 9.40197 6.49325 9.96526 6.91652 10.3918C7.34179 10.8162 7.90347 11.0516 8.50326 11.0516C9.10306 11.0516 9.66474 10.8162 10.09 10.3918C10.5133 9.96526 10.748 9.40197 10.748 8.80045C10.748 8.19894 10.5133 7.63564 10.09 7.20915C9.8823 6.99924 9.63506 6.83281 9.36267 6.71953C9.09027 6.60625 8.79815 6.54839 8.50326 6.54929ZM16.774 11.287L15.4621 10.1624C15.5243 9.78018 15.5564 9.3899 15.5564 9.00163C15.5564 8.61336 15.5243 8.22107 15.4621 7.84084L16.774 6.71627C16.8731 6.63118 16.944 6.51786 16.9774 6.39137C17.0107 6.26487 17.0048 6.1312 16.9606 6.00813L16.9425 5.95582C16.5815 4.94328 16.0405 4.00473 15.3457 3.18563L15.3096 3.14338C15.2253 3.0439 15.1128 2.97239 14.9871 2.93827C14.8614 2.90416 14.7284 2.90903 14.6055 2.95226L12.9766 3.53366C12.3748 3.03877 11.7048 2.64849 10.9787 2.3769L10.6637 0.668911C10.64 0.540243 10.5777 0.421871 10.4853 0.329522C10.3928 0.237173 10.2746 0.175218 10.1462 0.151888L10.092 0.141829C9.0489 -0.0472764 7.94961 -0.0472764 6.90649 0.141829L6.85232 0.151888C6.72393 0.175218 6.60566 0.237173 6.51322 0.329522C6.42077 0.421871 6.35854 0.540243 6.33478 0.668911L6.01783 2.38494C5.29853 2.6587 4.62846 3.04803 4.03389 3.53768L2.39298 2.95226C2.27015 2.90869 2.137 2.90364 2.01123 2.93778C1.88546 2.97191 1.77303 3.04362 1.68888 3.14338L1.65277 3.18563C0.959277 4.0056 0.418417 4.94392 0.0559897 5.95582L0.0379357 6.00813C-0.0523344 6.2596 0.0218877 6.54125 0.224494 6.71627L1.55247 7.85291C1.49028 8.23113 1.46019 8.61738 1.46019 8.99962C1.46019 9.38588 1.49028 9.77214 1.55247 10.1463L0.228506 11.283C0.129401 11.3681 0.05847 11.4814 0.0251453 11.6079C-0.00817932 11.7344 -0.00231886 11.868 0.0419476 11.9911L0.0600017 12.0434C0.423088 13.0553 0.95869 13.9908 1.65678 14.8136L1.69289 14.8559C1.77725 14.9553 1.88968 15.0268 2.01538 15.061C2.14107 15.0951 2.27412 15.0902 2.39699 15.047L4.0379 14.4616C4.63569 14.9544 5.30168 15.3447 6.02184 15.6143L6.33879 17.3303C6.36255 17.459 6.42479 17.5774 6.51723 17.6697C6.60967 17.7621 6.72794 17.824 6.85634 17.8474L6.9105 17.8574C7.96388 18.0475 9.04265 18.0475 10.096 17.8574L10.1502 17.8474C10.2786 17.824 10.3969 17.7621 10.4893 17.6697C10.5817 17.5774 10.644 17.459 10.6677 17.3303L10.9827 15.6223C11.7089 15.3487 12.3789 14.9605 12.9807 14.4656L14.6095 15.047C14.7324 15.0905 14.8655 15.0956 14.9913 15.0615C15.1171 15.0273 15.2295 14.9556 15.3136 14.8559L15.3497 14.8136C16.0478 13.9868 16.5834 13.0553 16.9465 12.0434L16.9646 11.9911C17.0508 11.7417 16.9766 11.462 16.774 11.287ZM8.50326 12.3371C6.55544 12.3371 4.97671 10.7539 4.97671 8.80045C4.97671 6.84703 6.55544 5.26378 8.50326 5.26378C10.4511 5.26378 12.0298 6.84703 12.0298 8.80045C12.0298 10.7539 10.4511 12.3371 8.50326 12.3371Z" fill="white"/>
</svg>
