<svg width="26" height="26" viewBox="0 0 26 26" fill="none" xmlns="http://www.w3.org/2000/svg">
<mask id="mask0_201_6" style="mask-type:luminance" maskUnits="userSpaceOnUse" x="0" y="0" width="26" height="26">
<rect width="25.7757" height="25.7757" fill="white"/>
</mask>
<g mask="url(#mask0_201_6)">
<path d="M11.0113 6.31967L11.3103 10.7659L11.4587 13.0007C11.4603 13.2305 11.4963 13.4589 11.5658 13.6783C11.7451 14.1042 12.1764 14.3749 12.6456 14.356L19.7954 13.8882C20.105 13.8832 20.404 13.999 20.6265 14.2102C20.812 14.3863 20.9317 14.6165 20.9695 14.8642L20.9822 15.0145C20.6863 19.1115 17.6773 22.5287 13.5889 23.4108C9.50036 24.2928 5.30784 22.4295 3.2875 18.8323C2.70506 17.7872 2.34126 16.6385 2.21746 15.4536C2.16574 15.1028 2.14298 14.7485 2.14937 14.3941C2.14298 10.0017 5.27091 6.20435 9.64941 5.28889C10.1764 5.20683 10.693 5.48581 10.9043 5.96654C10.959 6.07786 10.9951 6.1971 11.0113 6.31967Z" fill="white"/>
<path opacity="0.4" d="M23.6278 10.5383L23.6203 10.5733L23.5986 10.6242L23.6016 10.7639C23.5904 10.949 23.5189 11.127 23.3958 11.271C23.2675 11.4208 23.0922 11.5228 22.8992 11.5624L22.7815 11.5785L14.5324 12.1131C14.258 12.1401 13.9848 12.0516 13.7808 11.8697C13.6107 11.7179 13.502 11.5132 13.4713 11.2926L12.9176 3.05553C12.908 3.02769 12.908 2.9975 12.9176 2.96964C12.9252 2.74258 13.0252 2.52797 13.1952 2.37373C13.3651 2.2195 13.591 2.1385 13.8223 2.14883C18.7196 2.27342 22.8355 5.79499 23.6278 10.5383Z" fill="white"/>
</g>
</svg>
